<svg id="Layer_1" data-name="Layer 1" xmlns="http://www.w3.org/2000/svg" xmlns:xlink="http://www.w3.org/1999/xlink" viewBox="0 0 1019.51 611.88"><defs><style>.cls-1,.cls-10,.cls-11,.cls-14,.cls-15,.cls-19,.cls-2,.cls-27,.cls-31,.cls-33,.cls-35,.cls-36,.cls-37,.cls-38,.cls-39,.cls-40,.cls-41,.cls-42,.cls-43,.cls-45,.cls-46,.cls-47,.cls-48,.cls-49,.cls-5,.cls-50,.cls-51,.cls-52,.cls-53,.cls-54{fill-rule:evenodd;}.cls-1{fill:url(#linear-gradient);}.cls-2{fill:url(#White_Black);}.cls-3{fill:url(#White_Black-2);}.cls-4{fill:url(#Sky);}.cls-5{fill:url(#New_Gradient_Swatch_1);}.cls-6{fill:url(#Sky-2);}.cls-7{fill:url(#Sky-3);}.cls-11,.cls-8{fill:#fcee8d;}.cls-9{fill:url(#Sky-4);}.cls-10{fill:url(#Sky-5);}.cls-12{fill:url(#White_Black-3);}.cls-13{fill:url(#White_Black-4);}.cls-14{fill:url(#Sky-6);}.cls-15{fill:url(#Sky-7);}.cls-16{fill:url(#Sky-8);}.cls-17{fill:url(#Sky-9);}.cls-18{fill:url(#Sky-10);}.cls-19{fill:url(#Sky-11);}.cls-20{fill:url(#Sky-12);}.cls-21{fill:url(#Sky-13);}.cls-22{fill:url(#Sky-14);}.cls-23{fill:url(#Sky-15);}.cls-24{fill:url(#Sky-16);}.cls-25{fill:url(#Sky-17);}.cls-26{fill:url(#Sky-18);}.cls-27{fill:url(#Sky-19);}.cls-28{fill:url(#Sky-20);}.cls-29,.cls-56{fill:#9e84ff;}.cls-30{fill:#a8d1e8;}.cls-31,.cls-32{fill:#f6dcff;}.cls-33{fill:url(#linear-gradient-2);}.cls-34{fill:url(#linear-gradient-3);}.cls-35{fill:url(#linear-gradient-4);}.cls-36{fill:url(#linear-gradient-5);}.cls-37,.cls-55{fill:#c7c0d4;}.cls-38{fill:url(#linear-gradient-6);}.cls-39{fill:#ff509d;}.cls-40{fill:#68a8ff;}.cls-41{fill:url(#linear-gradient-7);}.cls-42{fill:url(#linear-gradient-8);}.cls-43{fill:url(#linear-gradient-9);}.cls-44{fill:url(#linear-gradient-10);}.cls-45{fill:url(#linear-gradient-11);}.cls-46{fill:url(#linear-gradient-12);}.cls-47{fill:url(#linear-gradient-13);}.cls-48{fill:url(#linear-gradient-14);}.cls-49{fill:url(#linear-gradient-15);}.cls-50{fill:url(#New_Gradient_Swatch_1-2);}.cls-51{fill:url(#Sky-21);}.cls-52{fill:url(#Sky-22);}.cls-53{fill:url(#Sky-23);}.cls-54{fill:url(#Sky-24);}.cls-55,.cls-56,.cls-57{font-size:131.88px;font-family:ShowcardGothic-Reg, Showcard Gothic;letter-spacing:0.25em;}.cls-57{fill:#fff;}</style><linearGradient id="linear-gradient" x1="59.63" y1="239.75" x2="909.37" y2="239.75" gradientUnits="userSpaceOnUse"><stop offset="0" stop-color="#fff"/><stop offset="0.65" stop-color="#69f"/><stop offset="0.68" stop-color="#6495f9" stop-opacity="0.99"/><stop offset="0.72" stop-color="#5c8be7" stop-opacity="0.95"/><stop offset="0.76" stop-color="#5179ca" stop-opacity="0.9"/><stop offset="0.81" stop-color="#4161a2" stop-opacity="0.82"/><stop offset="0.87" stop-color="#2c426e" stop-opacity="0.72"/><stop offset="0.92" stop-color="#131d30" stop-opacity="0.59"/><stop offset="0.96" stop-opacity="0.5"/></linearGradient><linearGradient id="White_Black" x1="507.04" y1="419.77" x2="584.7" y2="419.77" gradientUnits="userSpaceOnUse"><stop offset="0" stop-color="#fff"/><stop offset="1"/></linearGradient><linearGradient id="White_Black-2" x1="650.31" y1="380.57" x2="698.32" y2="380.57" xlink:href="#White_Black"/><linearGradient id="Sky" x1="597.17" y1="413.09" x2="650.31" y2="413.09" gradientUnits="userSpaceOnUse"><stop offset="0" stop-color="#cce0f4"/><stop offset="0.06" stop-color="#c3dcf2"/><stop offset="0.17" stop-color="#a9d2ee"/><stop offset="0.31" stop-color="#80c2e7"/><stop offset="0.46" stop-color="#47acde"/><stop offset="0.57" stop-color="#1e9cd7"/><stop offset="0.87" stop-color="#0075be"/><stop offset="0.99" stop-color="#005b97"/></linearGradient><linearGradient id="New_Gradient_Swatch_1" x1="329.71" y1="96.08" x2="490.55" y2="96.08" gradientUnits="userSpaceOnUse"><stop offset="0" stop-color="#fff"/><stop offset="0.71" stop-color="#c7c0d4"/></linearGradient><linearGradient id="Sky-2" x1="804.42" y1="372.8" x2="808.96" y2="372.8" xlink:href="#Sky"/><linearGradient id="Sky-3" x1="799.62" y1="291.07" x2="813.5" y2="291.07" xlink:href="#Sky"/><linearGradient id="Sky-4" x1="870.51" y1="410.86" x2="875.59" y2="410.86" xlink:href="#Sky"/><linearGradient id="Sky-5" x1="868.15" y1="344.47" x2="883.66" y2="344.47" xlink:href="#Sky"/><linearGradient id="White_Black-3" x1="395.04" y1="408.41" x2="522.2" y2="408.41" xlink:href="#White_Black"/><linearGradient id="White_Black-4" x1="78.25" y1="400.35" x2="118.04" y2="400.35" xlink:href="#White_Black"/><linearGradient id="Sky-6" x1="205.05" y1="279.84" x2="250.49" y2="279.84" xlink:href="#Sky"/><linearGradient id="Sky-7" x1="238.25" y1="324.29" x2="283.69" y2="324.29" xlink:href="#Sky"/><linearGradient id="Sky-8" x1="276.7" y1="346.13" x2="322.13" y2="346.13" xlink:href="#Sky"/><linearGradient id="Sky-9" x1="322.13" y1="246.96" x2="390.28" y2="246.96" xlink:href="#Sky"/><linearGradient id="Sky-10" x1="322.13" y1="69.59" x2="390.28" y2="69.59" xlink:href="#Sky"/><linearGradient id="Sky-11" x1="331.31" y1="52.55" x2="349.66" y2="52.55" xlink:href="#Sky"/><linearGradient id="Sky-12" x1="345.72" y1="62.27" x2="364.07" y2="62.27" xlink:href="#Sky"/><linearGradient id="Sky-13" x1="149.13" y1="321.23" x2="194.57" y2="321.23" xlink:href="#Sky"/><linearGradient id="Sky-14" x1="84.47" y1="360.44" x2="129.91" y2="360.44" xlink:href="#Sky"/><linearGradient id="Sky-15" x1="118.33" y1="341.65" x2="163.76" y2="341.65" xlink:href="#Sky"/><linearGradient id="Sky-16" x1="154.59" y1="214.74" x2="178.18" y2="214.74" xlink:href="#Sky"/><linearGradient id="Sky-17" x1="161.14" y1="198.36" x2="178.18" y2="198.36" xlink:href="#Sky"/><linearGradient id="Sky-18" x1="166.17" y1="175.53" x2="173.16" y2="175.53" xlink:href="#Sky"/><linearGradient id="Sky-19" x1="396.4" y1="285.41" x2="461.19" y2="285.41" xlink:href="#Sky"/><linearGradient id="Sky-20" x1="475.26" y1="332.59" x2="530.31" y2="332.59" xlink:href="#Sky"/><linearGradient id="linear-gradient-2" x1="709.33" y1="210.08" x2="730.01" y2="210.08" gradientUnits="userSpaceOnUse"><stop offset="0" stop-color="#fff"/><stop offset="0.46" stop-color="#9e84ff"/><stop offset="0.96" stop-opacity="0.5"/></linearGradient><linearGradient id="linear-gradient-3" x1="645.01" y1="187.87" x2="727.44" y2="187.87" xlink:href="#linear-gradient-2"/><linearGradient id="linear-gradient-4" x1="718.98" y1="183.82" x2="744.38" y2="183.82" xlink:href="#linear-gradient-2"/><linearGradient id="linear-gradient-5" x1="595.06" y1="213.1" x2="663.95" y2="213.1" xlink:href="#linear-gradient-2"/><linearGradient id="linear-gradient-6" x1="545.44" y1="177" x2="725.7" y2="177" xlink:href="#linear-gradient-2"/><linearGradient id="linear-gradient-7" x1="625.77" y1="223.25" x2="660.12" y2="223.25" xlink:href="#linear-gradient-2"/><linearGradient id="linear-gradient-8" x1="626.04" y1="201.54" x2="660.13" y2="201.54" xlink:href="#linear-gradient-2"/><linearGradient id="linear-gradient-9" x1="506.04" y1="66.44" x2="518.19" y2="66.44" xlink:href="#linear-gradient-2"/><linearGradient id="linear-gradient-10" x1="502.79" y1="52.58" x2="551.22" y2="52.58" xlink:href="#linear-gradient-2"/><linearGradient id="linear-gradient-11" x1="497.59" y1="53.57" x2="512.52" y2="53.57" xlink:href="#linear-gradient-2"/><linearGradient id="linear-gradient-12" x1="544.85" y1="67.92" x2="585.33" y2="67.92" xlink:href="#linear-gradient-2"/><linearGradient id="linear-gradient-13" x1="508.57" y1="50.22" x2="614.49" y2="50.22" xlink:href="#linear-gradient-2"/><linearGradient id="linear-gradient-14" x1="547.1" y1="72.9" x2="567.28" y2="72.9" xlink:href="#linear-gradient-2"/><linearGradient id="linear-gradient-15" x1="547.1" y1="62.25" x2="567.13" y2="62.25" xlink:href="#linear-gradient-2"/><linearGradient id="New_Gradient_Swatch_1-2" x1="41.46" y1="447.34" x2="927.4" y2="447.34" xlink:href="#New_Gradient_Swatch_1"/><linearGradient id="Sky-21" x1="603.01" y1="436.33" x2="912.22" y2="436.33" xlink:href="#Sky"/><linearGradient id="Sky-22" x1="192.82" y1="426.82" x2="413.88" y2="426.82" xlink:href="#Sky"/><linearGradient id="Sky-23" x1="409.41" y1="457.64" x2="718.62" y2="457.64" xlink:href="#Sky"/><linearGradient id="Sky-24" x1="65.93" y1="463.31" x2="375.14" y2="463.31" xlink:href="#Sky"/></defs><path class="cls-1" d="M484.5,5.84c234.65,0,424.87,190.22,424.87,424.86a429.57,429.57,0,0,1-2.15,43H61.78a429.57,429.57,0,0,1-2.15-43C59.63,196.06,249.85,5.84,484.5,5.84Z" transform="translate(-3 -5.84)"/><polygon class="cls-2" points="507.04 363.76 569.67 363.76 584.7 378.79 584.7 475.77 507.04 475.77 507.04 363.76"/><rect class="cls-3" x="650.31" y="290.12" width="48.01" height="180.9"/><rect class="cls-4" x="597.17" y="355.15" width="53.13" height="115.87"/><path class="cls-5" d="M410.13,176.5a80.42,80.42,0,1,0-80.42-80.42A80.57,80.57,0,0,0,410.13,176.5Z" transform="translate(-3 -5.84)"/><rect class="cls-6" x="804.42" y="299.9" width="4.54" height="145.8"/><rect class="cls-7" x="799.62" y="273.92" width="13.87" height="34.31" rx="5.55"/><rect class="cls-8" x="801.87" y="279.47" width="9.39" height="23.21" rx="3.75"/><rect class="cls-9" x="870.51" y="346.43" width="5.08" height="128.85"/><path class="cls-10" d="M874.35,329.31h3.11c3.41,0,6.2,2.2,6.2,4.9v20.51c0,2.7-2.79,4.9-6.2,4.9h-3.11c-3.41,0-6.2-2.2-6.2-4.9V334.21C868.15,331.51,870.94,329.31,874.35,329.31Z" transform="translate(-3 -5.84)"/><path class="cls-11" d="M874.85,334.21H877c2.31,0,4.19,1.49,4.19,3.32V351.4c0,1.83-1.88,3.32-4.19,3.32h-2.11c-2.3,0-4.19-1.49-4.19-3.32V337.53C870.66,335.7,872.55,334.21,874.85,334.21Z" transform="translate(-3 -5.84)"/><rect class="cls-12" x="395.04" y="341.06" width="127.17" height="134.7"/><rect class="cls-13" x="78.25" y="353.26" width="39.79" height="94.16"/><polygon class="cls-14" points="222.3 134.8 233.23 134.8 250.49 152.05 250.49 407.63 233.23 424.88 222.3 424.88 205.05 407.63 205.05 152.05 222.3 134.8"/><polygon class="cls-15" points="238.25 232.98 262.94 232.98 283.69 253.73 283.69 415.6 238.25 415.6 238.25 232.98"/><rect class="cls-16" x="276.7" y="276.67" width="45.44" height="138.93"/><rect class="cls-17" x="322.13" y="78.33" width="68.15" height="337.27"/><rect class="cls-18" x="322.13" y="64.79" width="68.15" height="9.61"/><polygon class="cls-19" points="349.65 74.4 331.31 74.4 331.31 39.88 340.48 30.71 349.65 30.71 349.65 74.4"/><rect class="cls-20" x="345.72" y="53.43" width="18.35" height="17.69"/><rect class="cls-21" x="149.13" y="226.87" width="45.44" height="188.73"/><rect class="cls-22" x="84.47" y="305.28" width="45.43" height="110.31"/><rect class="cls-23" x="118.33" y="267.71" width="45.44" height="147.89"/><rect class="cls-24" x="154.59" y="204.8" width="23.59" height="19.88"/><rect class="cls-25" x="161.14" y="172.03" width="17.04" height="52.65"/><rect class="cls-26" x="166.17" y="147.79" width="6.99" height="55.48"/><polygon class="cls-27" points="396.4 155.21 431.61 155.21 461.19 184.79 461.19 415.6 396.4 415.6 396.4 155.21"/><rect class="cls-28" x="475.26" y="249.58" width="55.05" height="166.02"/><rect class="cls-29" x="291.33" y="259.63" width="40.63" height="7.86"/><rect class="cls-30" x="314.93" y="224.68" width="17.04" height="7.86"/><rect class="cls-30" x="314.93" y="206.77" width="17.04" height="7.86"/><rect class="cls-30" x="314.93" y="188.85" width="17.04" height="7.86"/><rect class="cls-30" x="314.93" y="170.94" width="17.04" height="7.86"/><rect class="cls-30" x="314.93" y="153.03" width="17.04" height="7.86"/><rect class="cls-30" x="314.93" y="135.12" width="17.04" height="7.86"/><rect class="cls-30" x="314.93" y="117.21" width="17.04" height="7.86"/><rect class="cls-30" x="314.93" y="99.29" width="17.04" height="7.86"/><rect class="cls-8" x="159.62" y="236.04" width="30.14" height="7.86"/><rect class="cls-8" x="159.62" y="251.55" width="30.14" height="7.86"/><rect class="cls-8" x="159.62" y="267.06" width="30.14" height="7.86"/><rect class="cls-8" x="159.62" y="282.57" width="30.14" height="7.86"/><rect class="cls-8" x="159.62" y="298.08" width="30.14" height="7.86"/><rect class="cls-8" x="159.62" y="313.59" width="30.14" height="7.86"/><rect class="cls-8" x="159.62" y="329.09" width="30.14" height="7.86"/><rect class="cls-8" x="211.83" y="164.28" width="5.24" height="12.89"/><rect class="cls-8" x="221.22" y="156.85" width="5.24" height="12.89"/><rect class="cls-8" x="230.83" y="164.28" width="5.24" height="12.89"/><rect class="cls-8" x="211.83" y="183.17" width="5.24" height="12.89"/><rect class="cls-8" x="221.22" y="175.75" width="5.24" height="12.89"/><rect class="cls-8" x="230.83" y="183.17" width="5.24" height="12.89"/><rect class="cls-8" x="211.83" y="220.96" width="5.24" height="12.89"/><rect class="cls-8" x="221.22" y="213.53" width="5.24" height="12.89"/><rect class="cls-8" x="230.83" y="220.96" width="5.24" height="12.89"/><rect class="cls-8" x="211.83" y="239.85" width="5.24" height="12.89"/><rect class="cls-8" x="221.22" y="232.43" width="5.24" height="12.89"/><rect class="cls-8" x="230.83" y="239.85" width="5.24" height="12.89"/><rect class="cls-8" x="285.11" y="283.98" width="10.05" height="17.69"/><rect class="cls-8" x="298.11" y="283.98" width="10.05" height="17.69"/><rect class="cls-8" x="285.11" y="304.73" width="10.05" height="17.69"/><rect class="cls-8" x="298.11" y="304.73" width="10.05" height="17.69"/><rect class="cls-8" x="285.11" y="325.49" width="10.05" height="17.69"/><rect class="cls-8" x="298.11" y="325.49" width="10.05" height="17.69"/><rect class="cls-8" x="285.11" y="346.24" width="10.05" height="17.69"/><rect class="cls-8" x="298.11" y="346.24" width="10.05" height="17.69"/><rect class="cls-8" x="331.97" y="99.29" width="42.93" height="7.86"/><rect class="cls-8" x="331.97" y="116.77" width="42.93" height="7.86"/><rect class="cls-8" x="331.97" y="134.24" width="42.93" height="7.86"/><rect class="cls-8" x="331.97" y="151.72" width="42.93" height="7.86"/><rect class="cls-8" x="331.97" y="169.19" width="42.93" height="7.86"/><rect class="cls-8" x="331.97" y="186.67" width="42.93" height="7.86"/><rect class="cls-8" x="331.97" y="204.14" width="42.93" height="7.86"/><path class="cls-31" d="M335.52,269.4H200.22a2.92,2.92,0,0,1-2.91-2.91h0a2.91,2.91,0,0,1,2.91-2.9h135.3a2.91,2.91,0,0,1,2.91,2.9h0A2.92,2.92,0,0,1,335.52,269.4Z" transform="translate(-3 -5.84)"/><rect class="cls-32" x="242.27" y="240.14" width="84.89" height="3.5" rx="1.75"/><rect class="cls-32" x="331.24" y="126.1" width="84.89" height="3.5" rx="1.75"/><path class="cls-33" d="M714,221.86h-4.67l11.36-23.57H730l-8.66,18C719.87,219.35,716.56,221.86,714,221.86Z" transform="translate(-3 -5.84)"/><rect class="cls-34" x="645.01" y="183.28" width="82.42" height="9.17"/><path class="cls-35" d="M738.65,169.35h5.73l-13.94,28.94H719l10.64-22.08C731.44,172.43,735.5,169.35,738.65,169.35Z" transform="translate(-3 -5.84)"/><path class="cls-36" d="M615.07,189.12H664v24c0,13.19-9,24-20,24H595.06v-24C595.06,199.91,604.06,189.12,615.07,189.12Z" transform="translate(-3 -5.84)"/><path class="cls-37" d="M642,189.12h22v24c0,13.19-9,24-20,24H622v-24C622,199.91,631,189.12,642,189.12Z" transform="translate(-3 -5.84)"/><path class="cls-38" d="M547.76,174.22H723.38A2.59,2.59,0,0,1,725.7,177h0a2.59,2.59,0,0,1-2.32,2.78H547.76a2.59,2.59,0,0,1-2.32-2.78h0A2.59,2.59,0,0,1,547.76,174.22Z" transform="translate(-3 -5.84)"/><path class="cls-37" d="M737.13,221.86h4.66l-11.35-23.57h-9.33l8.66,18C731.25,219.35,734.56,221.86,737.13,221.86Z" transform="translate(-3 -5.84)"/><path class="cls-39" d="M610,186.66h10.49a2.29,2.29,0,0,1,2,2.46h0a2.28,2.28,0,0,1-2,2.46H610a2.29,2.29,0,0,1-2-2.46h0A2.3,2.3,0,0,1,610,186.66Z" transform="translate(-3 -5.84)"/><path class="cls-40" d="M628.25,186.66h10.48a2.3,2.3,0,0,1,2.06,2.46h0a2.29,2.29,0,0,1-2.06,2.46H628.25a2.28,2.28,0,0,1-2-2.46h0A2.29,2.29,0,0,1,628.25,186.66Z" transform="translate(-3 -5.84)"/><path class="cls-41" d="M660.12,213.78c-.31,10.48-7.55,18.94-16.36,18.94h-18V213.78Z" transform="translate(-3 -5.84)"/><path class="cls-42" d="M642.14,193.49h18V209.6H626C627.42,200.47,634.14,193.49,642.14,193.49Z" transform="translate(-3 -5.84)"/><path class="cls-43" d="M515.44,72.22h2.75l-6.68-11.56H506l5.09,8.82A5.71,5.71,0,0,0,515.44,72.22Z" transform="translate(-3 -5.84)"/><rect class="cls-44" x="502.79" y="50.33" width="48.43" height="4.5"/><path class="cls-45" d="M501,46.47h-3.37l8.2,14.19h6.73l-6.25-10.83A7,7,0,0,0,501,46.47Z" transform="translate(-3 -5.84)"/><path class="cls-46" d="M573.57,56.16H544.85V67.92a11.79,11.79,0,0,0,11.76,11.76h28.72V67.92A11.79,11.79,0,0,0,573.57,56.16Z" transform="translate(-3 -5.84)"/><path class="cls-37" d="M557.77,56.16H544.85V67.92a11.79,11.79,0,0,0,11.76,11.76h12.92V67.92A11.8,11.8,0,0,0,557.77,56.16Z" transform="translate(-3 -5.84)"/><path class="cls-47" d="M613.12,48.86H509.93a1.36,1.36,0,0,0-1.36,1.36h0a1.37,1.37,0,0,0,1.36,1.37H613.12a1.38,1.38,0,0,0,1.37-1.37h0A1.37,1.37,0,0,0,613.12,48.86Z" transform="translate(-3 -5.84)"/><path class="cls-37" d="M501.86,72.22h-2.75l6.68-11.56h5.48l-5.09,8.82A5.73,5.73,0,0,1,501.86,72.22Z" transform="translate(-3 -5.84)"/><path class="cls-48" d="M547.1,68.25a9.66,9.66,0,0,0,9.62,9.29h10.56V68.25Z" transform="translate(-3 -5.84)"/><path class="cls-49" d="M557.67,58.3H547.1v7.9h20A9.67,9.67,0,0,0,557.67,58.3Z" transform="translate(-3 -5.84)"/><path class="cls-50" d="M64.24,412.23H904.62c12.53,0,22.78,15.8,22.78,35.11h0c0,19.3-10.25,35.1-22.78,35.1H64.24c-12.53,0-22.78-15.79-22.78-35.1h0C41.46,428,51.71,412.23,64.24,412.23Z" transform="translate(-3 -5.84)"/><path class="cls-11" d="M472.15,96.2c-6-1-11.12-3.88-14-8-1.87,4.68-6.15,8.7-11.78,11,6,1,11.11,3.87,14,8C462.24,102.55,466.52,98.53,472.15,96.2Z" transform="translate(-3 -5.84)"/><path class="cls-11" d="M535.42,328.3c-6-.95-11.12-3.87-14-8-1.87,4.68-6.15,8.7-11.78,11,6,1,11.11,3.88,14,8C525.51,334.65,529.79,330.63,535.42,328.3Z" transform="translate(-3 -5.84)"/><path class="cls-11" d="M250.49,459.28c-6-1-11.12-3.88-14-8-1.87,4.68-6.15,8.7-11.78,11,6,1,11.11,3.88,14,8C240.58,465.63,244.86,461.61,250.49,459.28Z" transform="translate(-3 -5.84)"/><path class="cls-11" d="M606.81,309.85c-6-1-11.11-3.88-14-8-1.87,4.69-6.15,8.71-11.78,11,6,.95,11.11,3.87,14,8C596.9,316.2,601.18,312.18,606.81,309.85Z" transform="translate(-3 -5.84)"/><path class="cls-11" d="M732.67,140.81c-8-1.27-14.7-5.13-18.55-10.58-2.48,6.2-8.14,11.52-15.59,14.6,8,1.27,14.71,5.13,18.55,10.58C719.56,149.22,725.22,143.89,732.67,140.81Z" transform="translate(-3 -5.84)"/><path class="cls-11" d="M694.61,126a13.85,13.85,0,0,1-9.28-5.29,13.89,13.89,0,0,1-7.8,7.3,13.91,13.91,0,0,1,9.28,5.29A13.89,13.89,0,0,1,694.61,126Z" transform="translate(-3 -5.84)"/><path class="cls-11" d="M468.26,288.1c-5.16-.82-9.53-3.32-12-6.85-1.61,4-5.27,7.46-10.1,9.46,5.16.82,9.53,3.33,12,6.86C459.76,293.55,463.43,290.1,468.26,288.1Z" transform="translate(-3 -5.84)"/><path class="cls-51" d="M905.85,441.24H609.37c-3.5,0-6.36-2.21-6.36-4.91h0c0-2.7,2.86-4.91,6.36-4.91H905.85c3.5,0,6.37,2.21,6.37,4.91h0C912.22,439,909.35,441.24,905.85,441.24Z" transform="translate(-3 -5.84)"/><path class="cls-52" d="M409.33,430.33h-212c-2.51,0-4.55-1.57-4.55-3.51h0c0-1.93,2-3.51,4.55-3.51h212c2.51,0,4.55,1.58,4.55,3.51h0C413.88,428.76,411.84,430.33,409.33,430.33Z" transform="translate(-3 -5.84)"/><path class="cls-53" d="M712.26,462.55H415.78c-3.5,0-6.37-2.21-6.37-4.91h0c0-2.7,2.87-4.91,6.37-4.91H712.26c3.5,0,6.36,2.21,6.36,4.91h0C718.62,460.34,715.76,462.55,712.26,462.55Z" transform="translate(-3 -5.84)"/><path class="cls-54" d="M368.78,468.22H72.3c-3.5,0-6.37-2.21-6.37-4.91h0c0-2.7,2.87-4.91,6.37-4.91H368.78c3.5,0,6.36,2.21,6.36,4.91h0C375.14,466,372.28,468.22,368.78,468.22Z" transform="translate(-3 -5.84)"/><text class="cls-55" transform="translate(13.26 585.1) scale(0.87 1)">metagascar</text><text class="cls-56" transform="translate(9.28 585.1) scale(0.87 1)">metagascar</text><text class="cls-57" transform="translate(0 585.1) scale(0.87 1)">metagascar</text></svg>